<svg width="24" height="24" viewBox="0 0 24 24" fill="none" xmlns="http://www.w3.org/2000/svg">
<path d="M23.6586 17.4477C23.5628 17.2073 23.2902 17.09 23.0496 17.186C22.8092 17.2819 22.692 17.5545 22.7879 17.7949C23.2326 18.9101 23.1267 20.1451 22.542 21.1509C22.3025 20.4809 21.7461 19.9495 21.0288 19.7602L20.9032 19.727C21.0806 19.4318 21.1829 19.0865 21.1829 18.7177V18.3273C21.1829 17.2435 20.3012 16.3618 19.2175 16.3618C18.1337 16.3618 17.252 17.2435 17.252 18.3273V18.7177C17.252 19.0865 17.3543 19.4317 17.5317 19.7269L17.406 19.7601C16.6891 19.9494 16.1328 20.4804 15.8931 21.1501C15.0404 19.6796 15.2422 17.7607 16.4996 16.5033C17.5808 15.4221 19.1995 15.0841 20.6235 15.6428C20.8645 15.7374 21.1365 15.6186 21.231 15.3776C21.3256 15.1366 21.2068 14.8646 20.9658 14.7701C19.195 14.0755 17.1816 14.4955 15.8367 15.8404C15.6128 16.0643 15.4139 16.3065 15.2413 16.5636L10.9645 14.2768C11.5895 12.8299 11.5895 11.1755 10.9645 9.72865L15.2429 7.44093C15.4148 7.69795 15.6126 7.94094 15.8367 8.16496C16.7397 9.068 17.9404 9.56529 19.2174 9.56529C20.4945 9.56529 21.6951 9.068 22.5981 8.16496C24.4622 6.30084 24.4622 3.26767 22.5981 1.40356C21.2449 0.0503799 19.2217 -0.365915 17.4441 0.343206C17.2037 0.439112 17.0864 0.711735 17.1824 0.952156C17.2782 1.19262 17.551 1.31009 17.7914 1.2139C19.2208 0.643814 20.8474 0.978546 21.9354 2.06646C23.1929 3.32392 23.3946 5.24279 22.5419 6.7132C22.3021 6.04364 21.7459 5.51246 21.0289 5.32327L20.9033 5.29008C21.0807 4.99487 21.183 4.64963 21.183 4.28082V3.89036C21.183 2.80661 20.3013 1.92495 19.2175 1.92495C18.1338 1.92495 17.2521 2.80661 17.2521 3.89036V4.28082C17.2521 4.64963 17.3544 4.99482 17.5318 5.29004L17.4061 5.32322C16.6891 5.51246 16.1328 6.04364 15.8931 6.71339C15.313 5.71402 15.2043 4.48703 15.6392 3.37811C15.7338 3.13713 15.615 2.86511 15.374 2.77061C15.133 2.67597 14.8611 2.79485 14.7665 3.03583C14.3056 4.2107 14.3359 5.49202 14.8009 6.6143L10.5228 8.90183C10.3071 8.5678 10.0535 8.2513 9.76132 7.95904C8.87398 7.0717 7.74965 6.5115 6.50986 6.33895C5.31089 6.17194 4.06665 6.39487 3.00639 6.96618C2.77849 7.08899 2.69327 7.37334 2.81603 7.60115C2.93889 7.82905 3.22328 7.91427 3.451 7.79151C5.29411 6.79837 7.61647 7.13985 9.09837 8.62189C10.6356 10.1591 10.9049 12.4913 9.90687 14.3072C9.60846 13.4834 8.92226 12.8304 8.03872 12.5972L7.68533 12.504C7.96733 12.1087 8.13392 11.6257 8.13392 11.1043V10.5962C8.13392 9.26389 7.05004 8.18 5.71772 8.18C4.3854 8.18 3.30147 9.26389 3.30147 10.5962V11.1043C3.30147 11.6258 3.46806 12.1087 3.75006 12.504L3.39667 12.5972C2.51449 12.8301 1.82904 13.4813 1.52993 14.3034C0.769389 12.9078 0.730811 11.1756 1.50659 9.73587C1.6294 9.50797 1.54423 9.22362 1.31632 9.10091C1.08828 8.97805 0.804123 9.06326 0.681358 9.29117C0.109955 10.3515 -0.112793 11.5958 0.0539399 12.7947C0.226486 14.0345 0.786686 15.1589 1.67402 16.0462C2.78885 17.161 4.25326 17.7184 5.71767 17.7184C7.18209 17.7184 8.64645 17.161 9.76132 16.0462C10.0536 15.7539 10.3072 15.4374 10.5228 15.1034L14.7983 17.3896C14.5609 17.9625 14.4365 18.5822 14.4365 19.2211C14.4365 20.4981 14.9338 21.6987 15.8368 22.6018C16.769 23.5339 17.9933 23.9999 19.2176 23.9999C20.4419 23.9999 21.6663 23.5339 22.5983 22.6018C23.9515 21.2487 24.3677 19.2256 23.6586 17.4477ZM18.1896 3.8905C18.1896 3.32364 18.6508 2.86254 19.2176 2.86254C19.7844 2.86254 20.2456 3.32369 20.2456 3.8905V4.28096C20.2456 4.84777 19.7844 5.30888 19.2176 5.30888C18.6508 5.30888 18.1896 4.84773 18.1896 4.28096V3.8905ZM16.7018 7.55207V7.45452C16.7018 6.87998 17.0898 6.37641 17.6453 6.22978L18.3498 6.04383C18.6117 6.17325 18.9062 6.24633 19.2175 6.24633C19.5288 6.24633 19.8233 6.17325 20.0851 6.04388L20.7896 6.22983C21.3452 6.37641 21.7331 6.88003 21.7331 7.45457V7.68623C21.7331 7.68716 21.7333 7.68805 21.7333 7.68894C21.0347 8.29583 20.1519 8.62789 19.2175 8.62789C18.2757 8.62789 17.3862 8.29058 16.685 7.67455C16.6957 7.63546 16.7018 7.59454 16.7018 7.55207ZM4.23896 10.5964C4.23896 9.78106 4.90229 9.11769 5.71777 9.11769C6.53315 9.11769 7.19652 9.78101 7.19652 10.5964V11.1045C7.19652 11.9199 6.5332 12.5833 5.71777 12.5833C4.90233 12.5833 4.23896 11.92 4.23896 11.1045V10.5964ZM9.13231 15.3486C9.12097 15.3602 9.10986 15.3719 9.09837 15.3834C7.2343 17.2475 4.20109 17.2475 2.33697 15.3834C2.32535 15.3718 2.31447 15.3597 2.30299 15.348V15.2341C2.30299 14.4225 2.8511 13.7109 3.63587 13.5038L4.60482 13.2481C4.93815 13.4219 5.31647 13.5207 5.71767 13.5207C6.11887 13.5207 6.49715 13.4219 6.83048 13.2481L7.79943 13.5038C8.58416 13.7109 9.13231 14.4224 9.13231 15.234V15.3486ZM18.1896 18.3274C18.1896 17.7605 18.6508 17.2994 19.2176 17.2994C19.7844 17.2994 20.2456 17.7605 20.2456 18.3274V18.7178C20.2456 19.2846 19.7844 19.7458 19.2176 19.7458C18.6508 19.7458 18.1896 19.2846 18.1896 18.7178V18.3274ZM16.6851 22.1114C16.6957 22.0723 16.7018 22.0313 16.7018 21.9889V21.8914C16.7018 21.3169 17.0898 20.8133 17.6453 20.6666L18.3498 20.4807C18.6117 20.6101 18.9062 20.6832 19.2175 20.6832C19.5288 20.6832 19.8233 20.6101 20.0852 20.4807L20.7896 20.6666C21.3452 20.8132 21.7331 21.3168 21.7331 21.8914V22.123C21.7331 22.1239 21.7333 22.1247 21.7333 22.1256C20.2885 23.3789 18.1245 23.3742 16.6851 22.1114Z" fill="#1C1D1D"/>
</svg>
